<svg width="180" height="50" fill="none" xmlns="http://www.w3.org/2000/svg"><rect width="180" height="50" rx="6" fill="white"/><path d="M124.418 18.7578L122.133 31.9023L116.586 32.0195L115.395 25.3984L114.203 31.5117L108.656 31.707L106.352 19.1484L111.195 18.7188L112.172 26.4336L113.48 19.3047H117.289L118.812 26.5312L119.594 18.3281L124.418 18.7578Z" fill="#F8769F"/><path d="M106.371 24.8359C106.371 25.4284 106.303 26.0013 106.166 26.5547C106.029 27.1016 105.831 27.6159 105.57 28.0977C105.316 28.5794 105.004 29.0221 104.633 29.4258C104.268 29.8229 103.855 30.1647 103.393 30.4512C102.937 30.7376 102.439 30.9622 101.898 31.125C101.358 31.2812 100.785 31.3594 100.18 31.3594C99.5938 31.3594 99.0339 31.2845 98.5 31.1348C97.9727 30.985 97.4779 30.7767 97.0156 30.5098C96.5534 30.2363 96.1335 29.9108 95.7559 29.5332C95.3848 29.1491 95.0658 28.7259 94.7988 28.2637C94.5384 27.7949 94.3333 27.2936 94.1836 26.7598C94.0404 26.2259 93.9688 25.6693 93.9688 25.0898C93.9688 24.5234 94.0371 23.9701 94.1738 23.4297C94.3105 22.8828 94.5059 22.3685 94.7598 21.8867C95.0202 21.4049 95.3327 20.9622 95.6973 20.5586C96.0618 20.1549 96.4688 19.8066 96.918 19.5137C97.3737 19.2207 97.8652 18.9928 98.3926 18.8301C98.9199 18.6673 99.4766 18.5859 100.062 18.5859C101.007 18.5859 101.866 18.7324 102.641 19.0254C103.422 19.3184 104.086 19.7383 104.633 20.2852C105.186 20.8255 105.613 21.4831 105.912 22.2578C106.218 23.026 106.371 23.8854 106.371 24.8359ZM102.035 25.0898C102.035 24.8099 101.993 24.5397 101.908 24.2793C101.83 24.0124 101.713 23.778 101.557 23.5762C101.4 23.3678 101.205 23.2018 100.971 23.0781C100.743 22.9479 100.479 22.8828 100.18 22.8828C99.8737 22.8828 99.6003 22.9382 99.3594 23.0488C99.1185 23.1595 98.9102 23.3125 98.7344 23.5078C98.5651 23.6966 98.4349 23.9212 98.3438 24.1816C98.2526 24.4355 98.207 24.7057 98.207 24.9922C98.207 25.2656 98.2461 25.5391 98.3242 25.8125C98.4023 26.0859 98.5195 26.3333 98.6758 26.5547C98.832 26.776 99.0241 26.9551 99.252 27.0918C99.4863 27.2285 99.7565 27.2969 100.062 27.2969C100.368 27.2969 100.642 27.2383 100.883 27.1211C101.13 26.9974 101.339 26.8346 101.508 26.6328C101.677 26.4245 101.807 26.1868 101.898 25.9199C101.99 25.653 102.035 25.3763 102.035 25.0898Z" fill="#F8769F"/><path d="M93.375 27.3789C93.375 28.1146 93.3652 28.8438 93.3457 29.5664C93.3327 30.2826 93.3099 31.0052 93.2773 31.7344L87.6523 31.6367C87.8477 30.4844 88.0169 29.3353 88.1602 28.1895C88.3034 27.0371 88.375 25.875 88.375 24.7031C88.375 24.6185 88.3717 24.4818 88.3652 24.293C88.3587 24.1042 88.3457 23.8926 88.3262 23.6582C88.3066 23.4173 88.2773 23.1732 88.2383 22.9258C88.2057 22.6719 88.1569 22.4408 88.0918 22.2324C88.0332 22.0241 87.9583 21.8548 87.8672 21.7246C87.7826 21.5879 87.6784 21.5195 87.5547 21.5195C87.3333 21.5195 87.1445 21.5846 86.9883 21.7148C86.8385 21.8451 86.7116 22.0143 86.6074 22.2227C86.5098 22.4245 86.4316 22.6523 86.373 22.9062C86.3145 23.1602 86.2689 23.4141 86.2363 23.668C86.2103 23.9219 86.1908 24.1628 86.1777 24.3906C86.1712 24.612 86.168 24.7943 86.168 24.9375C86.1354 26.0898 86.1094 27.2357 86.0898 28.375C86.0703 29.5078 86.0443 30.6536 86.0117 31.8125L81.0312 32.0273C81.1615 29.7292 81.2852 27.444 81.4023 25.1719C81.526 22.8997 81.6237 20.6146 81.6953 18.3164L86.3047 18.082L86.2656 19.6445C86.4479 19.4232 86.6432 19.2148 86.8516 19.0195C87.0664 18.8242 87.2943 18.6582 87.5352 18.5215C87.776 18.3783 88.0299 18.2676 88.2969 18.1895C88.5703 18.1048 88.8568 18.0625 89.1562 18.0625C89.7096 18.0625 90.1947 18.1536 90.6113 18.3359C91.028 18.5182 91.3861 18.7656 91.6855 19.0781C91.985 19.3906 92.2357 19.7617 92.4375 20.1914C92.6393 20.6146 92.8021 21.0671 92.9258 21.5488C93.0495 22.0306 93.1439 22.5352 93.209 23.0625C93.2741 23.5833 93.3164 24.0977 93.3359 24.6055C93.362 25.1133 93.375 25.6048 93.375 26.0801C93.375 26.5553 93.375 26.9883 93.375 27.3789Z" fill="#F8769F"/><path d="M77.2734 19.0977L72.6836 26.5977L72.8203 32.125H67.8008L67.918 26.6367L64.3438 19.3906L69.3242 18.7656L70.8867 22.9844L72.5859 18.7656L77.2734 19.0977Z" fill="#F8769F"/><path d="M66.2188 31.4727L61.375 32.0977L60.7891 29.8906H58.5625L58.0742 32.0977L53.0938 31.6094L56.9805 18.6016L62.4102 18.3281L66.2188 31.4727ZM60.4375 26.9023L59.6953 23.5039L58.9727 26.9023H60.4375Z" fill="#F8769F"/><path d="M53.4453 27.1367L53.0352 31.4727L44.8125 32.1172L45.125 18.1719H50.2031L49.4805 27.1367H53.4453Z" fill="#F8769F"/><path d="M44.3477 22.9219C44.3477 23.5534 44.2533 24.1133 44.0645 24.6016C43.8757 25.0898 43.6152 25.5163 43.2832 25.8809C42.9577 26.2454 42.5736 26.5547 42.1309 26.8086C41.6882 27.0625 41.2129 27.2708 40.7051 27.4336C40.2038 27.5898 39.6829 27.707 39.1426 27.7852C38.6022 27.8568 38.0716 27.8958 37.5508 27.9023V32.4531H33C33 30.9622 33.0033 29.4779 33.0098 28C33.0163 26.5221 33.026 25.0312 33.0391 23.5273C33.0521 22.7331 33.0553 21.9388 33.0488 21.1445C33.0423 20.3503 33.0586 19.5495 33.0977 18.7422C33.931 18.4948 34.7643 18.3092 35.5977 18.1855C36.431 18.0618 37.2904 18 38.1758 18C38.6771 18 39.1784 18.0423 39.6797 18.127C40.181 18.2051 40.6595 18.332 41.1152 18.5078C41.5775 18.6836 42.0039 18.9049 42.3945 19.1719C42.7917 19.4323 43.1335 19.7448 43.4199 20.1094C43.7064 20.474 43.931 20.8906 44.0938 21.3594C44.263 21.8216 44.3477 22.3424 44.3477 22.9219ZM40.0117 23.2539C40.0117 22.8307 39.8815 22.502 39.6211 22.2676C39.3672 22.0267 39.0352 21.9062 38.625 21.9062C38.4883 21.9062 38.3451 21.9193 38.1953 21.9453C38.0521 21.9648 37.9154 21.9909 37.7852 22.0234L37.668 24.875C37.7591 24.888 37.847 24.8945 37.9316 24.8945C38.0163 24.8945 38.1042 24.8945 38.1953 24.8945C38.4297 24.8945 38.6543 24.8555 38.8691 24.7773C39.0905 24.6992 39.2858 24.5885 39.4551 24.4453C39.6243 24.2956 39.7578 24.123 39.8555 23.9277C39.9596 23.7259 40.0117 23.5013 40.0117 23.2539Z" fill="#F8769F"/><path d="M137.584 30.3019L138.462 28.1427L138.938 26.9689L139.339 25.9818L139.724 25.0337L139.232 23.8227L138.938 23.0995L138.352 21.6566L137.471 19.4905L136.775 17.7742L136.594 17.3296V17.3296C136.559 17.2341 136.67 17.1517 136.751 17.2137L136.775 17.2318L136.903 17.3296L138.937 18.8927L139.714 19.4905L141.1 20.5545L142.532 21.6557L143.263 22.2163L145.351 23.8209L145.427 23.878L146.684 24.8464C146.788 24.9265 146.788 25.0836 146.684 25.1636L145.616 25.9818L145.427 26.1289L143.263 27.7915L142.807 28.1427L141.1 29.4542L139.997 30.3019L138.937 31.1159L137.187 32.4628L136.775 32.7785V32.7785C136.696 32.8394 136.587 32.7566 136.625 32.6643L136.707 32.4628L136.775 32.2958L137.584 30.3019Z" fill="#F8769F"/></svg>